HIERARCHY
ROOT Hips
{
	OFFSET -6.501393 103.544830 -3.308209
	CHANNELS 6 Xposition Yposition Zposition Zrotation Yrotation Xrotation 
	JOINT Chest
	{
		OFFSET 3.490766 13.188873 -0.149589
		CHANNELS 6 Xposition Yposition Zposition Zrotation Yrotation Xrotation 
		JOINT Chest2
		{
			OFFSET 2.498665 20.695694 4.950911
			CHANNELS 6 Xposition Yposition Zposition Zrotation Yrotation Xrotation 
			JOINT Chest3
			{
				OFFSET 2.586676 14.483231 2.522879
				CHANNELS 6 Xposition Yposition Zposition Zrotation Yrotation Xrotation 
				JOINT Neck
				{
					OFFSET 3.658716 16.642105 2.875753
					CHANNELS 6 Xposition Yposition Zposition Zrotation Yrotation Xrotation 
					JOINT Head
					{
						OFFSET 0.562498 9.917938 3.338517
						CHANNELS 6 Xposition Yposition Zposition Zrotation Yrotation Xrotation 
						End Site #name: Head_end_site
						{
							OFFSET 0.623727 9.927261 3.299727
						}
					}
				}
				JOINT LeftCollar
				{
					OFFSET 3.158933 11.826752 7.207877
					CHANNELS 6 Xposition Yposition Zposition Zrotation Yrotation Xrotation 
					JOINT LeftUpArm
					{
						OFFSET 9.662516 -4.699112 13.894368
						CHANNELS 6 Xposition Yposition Zposition Zrotation Yrotation Xrotation 
						JOINT LeftLowArm
						{
							OFFSET -26.061760 -12.379883 17.528591
							CHANNELS 6 Xposition Yposition Zposition Zrotation Yrotation Xrotation 
							JOINT LeftHand
							{
								OFFSET -23.105013 -13.493835 13.602276
								CHANNELS 6 Xposition Yposition Zposition Zrotation Yrotation Xrotation 
								End Site #name: LeftHand_end_site
								{
									OFFSET -5.049747 -2.949127 2.972858
								}
							}
						}
					}
				}
				JOINT RightCollar
				{
					OFFSET -1.958067 14.041336 0.903037
					CHANNELS 6 Xposition Yposition Zposition Zrotation Yrotation Xrotation 
					JOINT RightUpArm
					{
						OFFSET -7.902977 5.073425 -14.842493
						CHANNELS 6 Xposition Yposition Zposition Zrotation Yrotation Xrotation 
						JOINT RightLowArm
						{
							OFFSET -31.237156 3.028915 12.441875
							CHANNELS 6 Xposition Yposition Zposition Zrotation Yrotation Xrotation 
							JOINT RightHand
							{
								OFFSET 1.770481 -9.929611 28.270538
								CHANNELS 6 Xposition Yposition Zposition Zrotation Yrotation Xrotation 
								End Site #name: RightHand_end_site
								{
									OFFSET 0.386944 -2.170212 6.178812
								}
							}
						}
					}
				}
			}
		}
	}
	JOINT LeftUpLeg
	{
		OFFSET 6.008414 -1.501137 7.878114
		CHANNELS 6 Xposition Yposition Zposition Zrotation Yrotation Xrotation 
		JOINT LeftLowLeg
		{
			OFFSET -32.490929 -13.194344 31.847103
			CHANNELS 6 Xposition Yposition Zposition Zrotation Yrotation Xrotation 
			JOINT LeftFoot
			{
				OFFSET -27.394722 -30.609779 17.695694
				CHANNELS 6 Xposition Yposition Zposition Zrotation Yrotation Xrotation 
				JOINT LeftToe
				{
					OFFSET -14.301807 2.204399 18.712517
					CHANNELS 6 Xposition Yposition Zposition Zrotation Yrotation Xrotation 
					End Site #name: LeftToe_end_site
					{
						OFFSET -6.634720 15.950195 16.159538
					}
				}
			}
		}
	}
	JOINT RightUpLeg
	{
		OFFSET -6.008467 1.500946 -7.878115
		CHANNELS 6 Xposition Yposition Zposition Zrotation Yrotation Xrotation 
		JOINT RightLowLeg
		{
			OFFSET -7.669543 -46.691193 2.263450
			CHANNELS 6 Xposition Yposition Zposition Zrotation Yrotation Xrotation 
			JOINT RightFoot
			{
				OFFSET 16.419405 -39.122486 -14.156796
				CHANNELS 6 Xposition Yposition Zposition Zrotation Yrotation Xrotation 
				JOINT RightToe
				{
					OFFSET -13.268997 -16.468420 10.596312
					CHANNELS 6 Xposition Yposition Zposition Zrotation Yrotation Xrotation 
					End Site #name: RightToe_end_site
					{
						OFFSET -19.207935 -1.991539 13.661808
					}
				}
			}
		}
	}
}
MOTION
Frames: 6
Frame Time: 0.033333
6.963143 105.335747 -2.427761 25.358296 29.836534 25.331558 3.467671 13.160931 -0.207275 -4.928535 -0.041182 -18.303076 2.428962 20.614855 4.896452 -2.981928 6.085006 1.019407 2.643717 14.370018 2.545088 3.778996 1.780604 6.791558 3.516492 16.524372 2.817418 -1.628949 -3.344897 -8.242000 0.580319 9.840206 3.332601 0.911214 -0.174033 3.600594 3.159035 11.766014 7.073307 -7.432856 27.428546 2.676969 9.666771 -4.586501 13.808283 18.463135 32.320544 -2.013282 -25.785212 -12.311336 17.379992 -54.777274 -25.116183 -28.856600 -22.966288 -13.423342 13.510636 1.259354 1.040573 -8.763654 -1.919923 13.910166 0.892472 14.783376 -1.747126 -9.422044 -7.814425 5.064511 -14.717785 36.124331 -19.252459 -11.800773 -30.889015 3.018233 12.376201 10.902359 7.696884 16.838317 1.742758 -9.811468 27.999117 0.556037 -2.048012 3.312887 5.942898 -1.638195 7.836724 28.635626 -10.909307 31.908718 -32.221275 -13.088205 31.594872 -3.974583 1.603384 -2.040651 -27.105249 -30.315750 17.552849 3.310331 -9.745191 -8.671926 -14.199398 2.170780 18.604429 6.021044 -0.096025 -2.506786 -5.940527 1.513241 -7.828999 -17.394977 -3.042645 0.644301 -7.661257 -46.299595 2.249183 -8.480549 0.547138 -11.184775 16.331980 -38.759674 -14.159550 13.857230 -18.282157 11.603007 -13.144678 -16.333885 10.522030 -3.653152 1.778147 -2.806573 
8.241249 105.414467 -2.522348 26.303427 30.057180 25.611416 3.474430 13.158298 -0.213445 -4.512639 -0.159355 -18.427782 2.437542 20.620991 4.890799 -3.193898 6.392742 0.669121 2.650236 14.370116 2.541518 3.792372 1.713905 6.696711 3.520376 16.531923 2.817701 -1.890534 -3.940462 -8.196150 0.582138 9.841999 3.338394 1.215516 -0.135545 3.081168 3.156185 11.765466 7.071804 -7.505283 27.797661 2.754029 9.666434 -4.591500 13.804585 18.272219 33.681350 -1.819740 -25.787514 -12.314710 17.382988 -55.439911 -25.427459 -28.623632 -22.958048 -13.430320 13.516210 1.288244 1.046799 -8.895499 -1.913609 13.908052 0.889431 14.727679 -1.197158 -9.354364 -7.818000 5.063907 -14.717132 37.224370 -19.255104 -12.103400 -30.891539 3.020748 12.381545 11.808182 7.610191 17.891913 1.744695 -9.813587 27.988483 0.431867 -2.093726 3.543494 5.942449 -1.647577 7.847944 28.651851 -11.588687 32.184770 -32.217571 -13.101318 31.600750 -3.482536 1.427659 -2.175357 -27.092878 -30.309736 17.556507 2.904750 -9.739354 -8.540841 -14.199116 2.171758 18.607203 6.707905 -0.719943 -2.648947 -5.947378 1.520867 -7.823554 -17.831054 -3.201526 0.849512 -7.650794 -46.309967 2.243917 -8.716173 0.269525 -10.758193 16.329912 -38.758339 -14.160352 14.969321 -18.548202 11.039492 -13.148281 -16.334379 10.506776 -4.124502 1.576076 -3.069290 
8.090314 105.667976 -2.445169 25.999410 29.791612 25.442226 3.473042 13.166364 -0.213660 -4.669767 -0.192631 -18.428342 2.427989 20.618616 4.890378 -3.125887 6.027703 0.573592 2.650117 14.372191 2.537582 3.714807 1.832924 7.019087 3.521061 16.527151 2.818704 -1.795469 -3.930305 -8.015222 0.586643 9.840343 3.341117 1.436097 0.278392 3.563081 3.162096 11.769492 7.070697 -7.562414 28.130573 2.814351 9.666652 -4.594996 13.807554 18.450516 33.751769 -1.288182 -25.783844 -12.313067 17.384167 -55.360295 -25.754289 -29.243571 -22.961714 -13.424472 13.515765 1.184719 0.952303 -8.919637 -1.916272 13.917410 0.887100 14.903717 -1.300526 -9.306921 -7.820474 5.066029 -14.719913 37.054647 -19.716750 -12.104164 -30.897623 3.020313 12.379717 11.750412 7.393978 17.895108 1.746795 -9.810340 27.992804 0.401049 -2.168088 3.642870 5.939806 -1.645852 7.847464 28.675969 -11.890535 32.647396 -32.217052 -13.098507 31.602005 -3.880849 1.090911 -2.494132 -27.095135 -30.312063 17.553305 2.996378 -9.264371 -8.578185 -14.195540 2.172438 18.602760 6.553948 -0.666487 -2.235448 -5.940245 1.516120 -7.828355 -17.658819 -3.143864 1.115512 -7.656119 -46.311886 2.251995 -9.715297 0.651872 -11.237072 16.328964 -38.756252 -14.159459 14.862970 -18.456725 11.140127 -13.149430 -16.329880 10.513436 -3.986712 1.696306 -3.050973 
6.363329 106.108086 -2.136347 25.572590 29.553849 25.574706 3.467907 13.165212 -0.216600 -5.074512 -0.085282 -18.796549 2.425729 20.622854 4.893324 -2.733835 5.727984 0.566866 2.645772 14.370078 2.543186 3.376974 1.700691 7.581110 3.516989 16.531794 2.823608 -1.508404 -3.470760 -8.071523 0.580813 9.840859 3.338220 0.964555 -0.023829 3.766210 3.172313 11.764431 7.069766 -7.305746 28.197908 2.794274 9.658110 -4.588289 13.810645 18.725361 32.616400 -0.804278 -25.786242 -12.316042 17.373499 -55.574278 -26.061804 -29.262682 -22.968601 -13.428205 13.514860 1.246147 0.674337 -8.757376 -1.909568 13.916624 0.897095 14.275963 -1.874797 -9.260475 -7.815080 5.066551 -14.717516 35.802021 -19.972966 -11.393057 -30.900007 3.015960 12.379667 11.056599 7.940629 17.732190 1.748039 -9.805948 27.994703 0.115530 -1.698701 3.284049 5.939713 -1.644533 7.841800 29.085633 -12.468070 33.231777 -32.222824 -13.091238 31.603403 -5.246398 1.092752 -2.978600 -27.102903 -30.320061 17.547569 3.528988 -9.829850 -9.186511 -14.200871 2.176399 18.600292 6.508952 -0.058648 -2.811093 -5.935557 1.520808 -7.830045 -17.034714 -3.493019 0.909777 -7.664254 -46.320618 2.256596 -10.513478 0.134045 -11.504231 16.335602 -38.765820 -14.148585 14.605772 -18.344691 11.816260 -13.143976 -16.329271 10.522438 -3.868305 1.762318 -3.291658 
3.313379 106.714348 -1.558096 24.229954 29.233934 24.989336 3.465657 13.165457 -0.207329 -6.065911 0.382346 -18.970786 2.423970 20.624508 4.898700 -2.323991 5.288190 1.052460 2.639570 14.357669 2.555041 3.384751 1.781448 7.444972 3.519304 16.527723 2.817673 -1.136889 -2.828259 -7.249642 0.582109 9.840281 3.333287 -0.043957 0.011768 4.314678 3.170879 11.755405 7.075891 -6.963570 27.528869 3.437203 9.657200 -4.577230 13.807685 19.518396 29.815763 -0.638009 -25.795198 -12.322218 17.365524 -55.151080 -26.242702 -29.623572 -22.977057 -13.434260 13.498883 1.440903 0.626000 -8.470648 -1.923085 13.913260 0.903146 13.274995 -3.108044 -9.602779 -7.813413 5.073248 -14.724680 33.485822 -20.497314 -10.270152 -30.909119 3.018515 12.370775 9.463698 8.374909 15.868140 1.743084 -9.805934 28.001083 -0.439806 -1.198353 3.027098 5.941001 -1.635810 7.834876 29.889898 -12.163920 32.740382 -32.232304 -13.075849 31.605839 -6.864017 1.406298 -3.207239 -27.126520 -30.336130 17.538927 4.159517 -9.679286 -9.101229 -14.206127 2.183061 18.595259 6.111741 1.202953 -2.852417 -5.933957 1.513651 -7.834002 -15.979837 -2.951247 0.642767 -7.678405 -46.315575 2.265700 -11.207013 0.320309 -11.848095 16.349876 -38.781574 -14.139312 13.782465 -17.537240 12.644884 -13.140501 -16.336956 10.535108 -3.705759 2.164466 -3.301186 
-0.641280 107.438095 -0.673696 22.654250 28.018727 24.236986 3.473133 13.169807 -0.188162 -7.309459 0.603770 -19.570198 2.423708 20.622778 4.897477 -1.884219 5.005219 1.499225 2.637622 14.347357 2.564069 2.958372 1.638384 7.913176 3.521129 16.535788 2.807141 -0.201228 -1.918455 -6.043569 0.583299 9.836465 3.327014 -0.988803 -0.231896 4.003587 3.177964 11.733668 7.093658 -6.122692 27.083683 3.758855 9.641388 -4.573575 13.815588 19.153669 26.795216 -0.442074 -25.821754 -12.312058 17.369743 -52.038364 -25.668542 -30.127797 -22.971792 -13.454815 13.481973 1.003810 0.521708 -7.427349 -1.919662 13.919291 0.912901 11.705786 -4.187737 -9.584788 -7.812256 5.065682 -14.733058 30.629362 -20.861488 -8.736852 -30.921267 3.024913 12.360648 7.638509 9.664840 13.582837 1.736561 -9.813710 28.016485 -1.576493 -0.504068 2.264721 5.954845 -1.617404 7.830246 30.703101 -11.847901 32.958023 -32.238743 -13.066785 31.607410 -8.876656 1.316066 -3.915847 -27.143770 -30.354332 17.530293 4.461722 -9.028910 -9.167985 -14.218436 2.178396 18.592340 5.702863 2.985214 -3.422412 -5.918607 1.511566 -7.847505 -14.526081 -3.172883 -0.131785 -7.696157 -46.320232 2.267203 -11.797706 0.455583 -11.957873 16.364449 -38.798939 -14.125659 13.314773 -17.434862 13.980903 -13.123588 -16.353785 10.547228 -3.048130 2.534328 -3.934819 
